<?xml version="1.0" encoding="UTF-8"?>
<svg width="44px" height="44px" viewBox="0 0 44 44" version="1.1" xmlns="http://www.w3.org/2000/svg" xmlns:xlink="http://www.w3.org/1999/xlink">
    <title>Photo, Edit/Position, Focus</title>
    <g id="页面-1" stroke="none" stroke-width="1" fill="none" fill-rule="evenodd">
        <g id="视频插件-白-翻转" transform="translate(-1662.000000, -1193.000000)">
            <g id="Photo,-Edit/Position,-Focus" transform="translate(1662.000000, 1193.000000)">
                <g id="Group" transform="translate(-0.000000, -0.000000)">
                    <g stroke-linecap="round" stroke-linejoin="round" transform="translate(5.500000, 5.500000)" id="Path" stroke="#000000" stroke-width="2.75">
                        <path d="M27.1666667,32.5000001 L5.8333334,32.5000001 C2.8893334,32.5000001 0.500000069,30.1106667 0.500000069,27.1666667 L0.500000069,5.8333334 C0.500000069,2.8893334 2.8893334,0.500000069 5.8333334,0.500000069 L27.1666667,0.500000069 C30.1106667,0.500000069 32.5000001,2.8893334 32.5000001,5.8333334 L32.5000001,27.1666667 C32.5000001,30.1106667 30.1106667,32.5000001 27.1666667,32.5000001 Z"></path>
                        <polyline points="7.50000007 19.5000001 13.5000001 19.5000001 13.5000001 25.5000001"></polyline>
                        <polyline points="25.5000001 13.5000001 19.5000001 13.5000001 19.5000001 7.50000007"></polyline>
                    </g>
                    <polygon id="Path" points="0 0 44.0000002 0 44.0000002 44.0000002 0 44.0000002"></polygon>
                </g>
            </g>
        </g>
    </g>
</svg>