<?xml version="1.0" encoding="UTF-8"?>
<svg width="60px" height="60px" viewBox="0 0 60 60" version="1.1" xmlns="http://www.w3.org/2000/svg" xmlns:xlink="http://www.w3.org/1999/xlink">
    <title>编组 14</title>
    <g id="I-Password" stroke="none" stroke-width="1" fill="none" fill-rule="evenodd">
        <g id="i04-1设置-Password" transform="translate(-407.000000, -653.000000)">
            <g id="编组-32" transform="translate(275.000000, 225.000000)">
                <g id="编组-14" transform="translate(132.000000, 428.000000)">
                    <rect id="矩形" x="0" y="0" width="60" height="60"></rect>
                    <path d="M22.0162268,45.1666667 C21.2053685,45.1639925 20.5499561,44.5118548 20.5517446,43.700994 L20.5517446,31 L14.4645386,31 C13.8711636,30.9992448 13.3368886,30.6405082 13.1115898,30.0915684 C12.884679,29.5412379 13.0102102,28.9084844 13.4300258,28.4864572 L28.9647353,14.4315451 C29.2387893,14.1553476 29.6117751,14 30.0008646,14 C30.3899541,14 30.7629399,14.1553476 31.0369938,14.4315451 L46.5717033,28.4864572 C46.9903577,28.906728 47.1148226,29.5403671 46.8885229,30.0915684 C46.6632241,30.6405082 46.1289491,30.9992448 45.5355741,31 L39.4444444,31 L39.4444444,43.700994 C39.4444444,44.5140564 38.7793948,45.1666667 37.9711817,45.1666667 L22.0162268,45.1666667 Z" id="路径" fill="#000000" fill-rule="nonzero" opacity="0.9"></path>
                </g>
            </g>
        </g>
    </g>
</svg>