<?xml version="1.0" encoding="UTF-8"?>
<svg width="44px" height="48px" viewBox="0 0 44 48" version="1.1" xmlns="http://www.w3.org/2000/svg" xmlns:xlink="http://www.w3.org/1999/xlink">
    <title>-mockplus-</title>
    <defs>
        <filter id="filter-1">
            <feColorMatrix in="SourceGraphic" type="matrix" values="0 0 0 0 0.000000 0 0 0 0 0.000000 0 0 0 0 0.000000 0 0 0 1.000000 0"></feColorMatrix>
        </filter>
    </defs>
    <g id="页面-1" stroke="none" stroke-width="1" fill="none" fill-rule="evenodd">
        <g id="相册-视频-功能栏" transform="translate(-1722.000000, -49.000000)">
            <g id="Content,-Edit/Documents-2" transform="translate(0.000000, -7.000000)" filter="url(#filter-1)">
                <g transform="translate(1722.000000, 56.333333)">
                    <g id="Group" transform="translate(-0.000000, -0.000000)">
                        <g stroke-linecap="round" stroke-linejoin="round" transform="translate(5.500000, 5.958333)" id="Path" stroke="#323232" stroke-width="2.75">
                            <path d="M29.3333335,11.9166667 L17.4808334,11.9166667 C16.8685001,11.9166667 16.2946667,11.5849862 15.9555001,11.0328473 L13.3778334,6.84413892 C13.0368334,6.29001392 12.4648334,5.95833336 11.8525,5.95833336 L3.66666668,5.95833336 C1.64083334,5.95833336 -3.25665422e-15,7.73590281 -3.25665422e-15,9.9305556 L-3.25665422e-15,31.7777779 C-3.25665422e-15,33.9724307 1.64083334,35.7500001 3.66666668,35.7500001 L29.3333335,35.7500001 C31.3591668,35.7500001 33,33.9724307 33,31.7777779 L33,15.888889 C33,13.6942362 31.3591668,11.9166667 29.3333335,11.9166667 Z"></path>
                            <line x1="15.5833334" y1="26.8125001" x2="12.8333334" y2="23.8333334"></line>
                            <line x1="20.1666668" y1="21.8472223" x2="15.5833334" y2="26.8125001"></line>
                            <path d="M3.66666668,5.95833336 L3.66666668,3.97222224 C3.66666668,1.77756945 5.30750002,0 7.33333336,0 L25.6666667,0 C27.6925001,0 29.3333335,1.77756945 29.3333335,3.97222224 L29.3333335,11.9166667"></path>
                        </g>
                        <polygon id="Path" points="0 0 44.0000002 0 44.0000002 47.6666669 0 47.6666669"></polygon>
                    </g>
                </g>
            </g>
        </g>
    </g>
</svg>