<?xml version="1.0" encoding="UTF-8"?>
<svg width="45px" height="49px" viewBox="0 0 45 49" version="1.1" xmlns="http://www.w3.org/2000/svg" xmlns:xlink="http://www.w3.org/1999/xlink">
    <title>Design, Tools/Crop,Edit 2</title>
    <defs>
        <filter id="filter-1">
            <feColorMatrix in="SourceGraphic" type="matrix" values="0 0 0 0 0.000000 0 0 0 0 0.000000 0 0 0 0 0.000000 0 0 0 1.000000 0"></feColorMatrix>
        </filter>
    </defs>
    <g id="页面-1" stroke="none" stroke-width="1" fill="none" fill-rule="evenodd">
        <g id="相册-视频-功能栏" transform="translate(-1598.000000, -49.000000)">
            <g id="Design,-Tools/Crop,Edit-2" transform="translate(0.000000, -7.000000)" filter="url(#filter-1)">
                <g transform="translate(1598.000000, 56.333333)">
                    <g id="Group" transform="translate(-0.000000, -0.000000)">
                        <g stroke-linecap="round" stroke-linejoin="round" transform="translate(5.500000, 5.958333)" id="Path" stroke="#323232" stroke-width="2.75">
                            <path d="M16.5,35.7500001 L3.66666668,35.7500001 C1.64083334,35.7500001 0,33.9724307 0,31.7777779 L0,17.8750001 C0,15.6803473 1.64083334,13.9027778 3.66666668,13.9027778 L16.5,13.9027778 C18.5258334,13.9027778 20.1666668,15.6803473 20.1666668,17.8750001 L20.1666668,31.7777779 C20.1666668,33.9724307 18.5258334,35.7500001 16.5,35.7500001 Z"></path>
                            <polyline points="36.6666668 13.9027778 31.1666668 19.8611112 25.6666668 13.9027778"></polyline>
                            <path d="M31.1666668,19.8611112 L31.1666668,7.94444448 C31.1666668,3.55712501 27.8831668,0 23.8333334,0 L16.5000001,0"></path>
                        </g>
                        <rect id="Rectangle" x="0" y="0" width="44.0000002" height="47.6666669"></rect>
                    </g>
                </g>
            </g>
        </g>
    </g>
</svg>