<?xml version="1.0" encoding="UTF-8"?>
<svg width="44px" height="44px" viewBox="0 0 44 44" version="1.1" xmlns="http://www.w3.org/2000/svg" xmlns:xlink="http://www.w3.org/1999/xlink">
    <title>编辑态（新）-选框</title>
    <defs>
        <filter id="filter-1">
            <feColorMatrix in="SourceGraphic" type="matrix" values="0 0 0 0 1.000000 0 0 0 0 1.000000 0 0 0 0 1.000000 0 0 0 0.900000 0"></feColorMatrix>
        </filter>
        <filter id="filter-2">
            <feColorMatrix in="SourceGraphic" type="matrix" values="0 0 0 0 1.000000 0 0 0 0 1.000000 0 0 0 0 1.000000 0 0 0 1.000000 0"></feColorMatrix>
        </filter>
        <filter id="filter-3">
            <feColorMatrix in="SourceGraphic" type="matrix" values="0 0 0 0 1.000000 0 0 0 0 1.000000 0 0 0 0 1.000000 0 0 0 1.000000 0"></feColorMatrix>
        </filter>
    </defs>
    <g id="页面-1" stroke="none" stroke-width="1" fill="none" fill-rule="evenodd">
        <g id="编辑态-选框-2" filter="url(#filter-1)">
            <g filter="url(#filter-2)" id="编辑态-选框">
                <g filter="url(#filter-3)" id="Interface,-Essential/Backward,-Rearward,-Back">
                    <g transform="translate(22.000000, 22.000000) scale(-1, 1) translate(-22.000000, -22.000000) translate(-0.000000, 0.000000)">
                        <g id="编组" transform="translate(5.500000, 5.500000)">
                            <path d="M25.6666667,0.916666667 C27.4384687,0.916666667 29.0426265,1.63494729 30.2038396,2.79616038 C31.3650527,3.95737347 32.0833333,5.56153125 32.0833333,7.33333333 L32.0833333,7.33333333 L32.0833333,25.6666667 C32.0833333,27.4384687 31.3650527,29.0426265 30.2038396,30.2038396 C29.0426265,31.3650527 27.4384687,32.0833333 25.6666667,32.0833333 L25.6666667,32.0833333 L7.33333333,32.0833333 C5.56153125,32.0833333 3.95737347,31.3650527 2.79616038,30.2038396 C1.63494729,29.0426265 0.916666667,27.4384687 0.916666667,25.6666667 L0.916666667,25.6666667 L0.916666667,7.33333333 C0.916666667,5.56153125 1.63494729,3.95737347 2.79616038,2.79616038 C3.95737347,1.63494729 5.56153125,0.916666667 7.33333333,0.916666667 L7.33333333,0.916666667 Z" id="Path" stroke="#FFFFFF" stroke-width="1.83333333"></path>
                            <path d="M12.9374655,23.5812871 L7.57496028,17.988196 C7.25279102,17.6521735 7.25279102,17.1073513 7.57496028,16.7712953 L8.74165966,15.5543946 C9.06382892,15.2183386 9.58622201,15.2183386 9.90839127,15.5543946 L13.5208313,19.3221348 L21.2582754,11.2520168 C21.5804447,10.9159944 22.1028377,10.9159944 22.425007,11.2520168 L23.5917064,12.4689175 C23.9138756,12.8049399 23.9138756,13.3497621 23.5917064,13.6858182 L14.1041971,23.5813207 C13.7819956,23.9173431 13.2596348,23.9173431 12.9374655,23.5812871 L12.9374655,23.5812871 Z" id="Shape" fill="#FFFFFF" transform="translate(15.583333, 17.416667) scale(-1, 1) translate(-15.583333, -17.416667) "></path>
                        </g>
                    </g>
                </g>
            </g>
        </g>
    </g>
</svg>