<?xml version="1.0" encoding="UTF-8"?>
<svg width="33px" height="32px" viewBox="0 0 33 32" version="1.1" xmlns="http://www.w3.org/2000/svg" xmlns:xlink="http://www.w3.org/1999/xlink">
    <title>icon/清空</title>
    <defs>
        <filter id="filter-1">
            <feColorMatrix in="SourceGraphic" type="matrix" values="0 0 0 0 0.556863 0 0 0 0 0.556863 0 0 0 0 0.576471 0 0 0 1.000000 0"></feColorMatrix>
        </filter>
    </defs>
    <g id="页面-1" stroke="none" stroke-width="1" fill="none" fill-rule="evenodd">
        <g id="输入框+滑杆+编辑态" transform="translate(-1530.000000, -716.000000)">
            <g id="-mockplus-" transform="translate(1185.000000, 702.000000)">
                <g id="icon/清空" transform="translate(20.000000, 0.000000)" filter="url(#filter-1)">
                    <g transform="translate(325.662963, 14.000000)" id="icon/清空">
                        <rect id="矩形" x="0" y="0" width="32" height="32"></rect>
                        <path d="M21.6363636,4.36363636 C24.9500721,4.36363636 27.6363636,7.04992786 27.6363636,10.3636364 L27.6363636,21.6363636 C27.6363636,24.9500721 24.9500721,27.6363636 21.6363636,27.6363636 L10.3636364,27.6363636 C7.04992786,27.6363636 4.36363636,24.9500721 4.36363636,21.6363636 L4.36363636,10.3636364 C4.36363636,7.04992786 7.04992786,4.36363636 10.3636364,4.36363636 L21.6363636,4.36363636 Z M13.1954523,11.8615012 C12.9025591,11.568608 12.4276854,11.568608 12.1347922,11.8615012 L12.1347922,11.8615012 L11.8615012,12.1347922 C11.568608,12.4276854 11.568608,12.9025591 11.8615012,13.1954523 L11.8615012,13.1954523 L14.6658313,15.9998313 L11.8615012,18.8045477 C11.568608,19.0974409 11.568608,19.5723146 11.8615012,19.8652078 L11.8615012,19.8652078 L12.1347922,20.1384988 C12.4276854,20.431392 12.9025591,20.431392 13.1954523,20.1384988 L13.1954523,20.1384988 L15.9998313,17.3338313 L18.8045477,20.1384988 C19.0974409,20.431392 19.5723146,20.431392 19.8652078,20.1384988 L19.8652078,20.1384988 L20.1384988,19.8652078 C20.431392,19.5723146 20.431392,19.0974409 20.1384988,18.8045477 L20.1384988,18.8045477 L17.3338313,15.9998313 L20.1384988,13.1954523 C20.431392,12.9025591 20.431392,12.4276854 20.1384988,12.1347922 L20.1384988,12.1347922 L19.8652078,11.8615012 C19.5723146,11.568608 19.0974409,11.568608 18.8045477,11.8615012 L18.8045477,11.8615012 L15.9998313,14.6658313 Z" id="删除" fill="#8E8E93"></path>
                    </g>
                </g>
            </g>
        </g>
    </g>
</svg>