<?xml version="1.0" encoding="UTF-8"?>
<svg width="100px" height="100px" viewBox="0 0 100 100" version="1.1" xmlns="http://www.w3.org/2000/svg" xmlns:xlink="http://www.w3.org/1999/xlink">
    <title>编组 27</title>
    <g id="页面-1" stroke="none" stroke-width="1" fill="none" fill-rule="evenodd">
        <g id="桌面" transform="translate(-1352.000000, -110.000000)">
            <g id="编组-16" transform="translate(155.000000, 110.000000)">
                <g id="编组-27" transform="translate(1197.000000, 0.000000)">
                    <g id="编组-10备份">
                        <rect id="矩形" fill="#394BF1" x="0" y="0" width="100" height="100" rx="24"></rect>
                        <path d="M73,17 C68.0458979,21.8359907 59.8155531,25 50.5,25 C41.1844469,25 32.9541021,21.8359907 28,17" id="路径" stroke="#FFFFFF" stroke-width="6" opacity="0.5" stroke-linecap="round" stroke-linejoin="round"></path>
                    </g>
                    <path d="M44.8321561,50.0430911 C50.5021407,47.8210428 57.56568,49.1538146 61.6241605,53.9965996 C65.4391542,58.5488267 66.1128157,65.6936721 63.1733619,70.8574197 C62.8484193,71.4280198 62.5133497,71.9508412 62.2449858,72.4889793 C61.8720503,73.2369774 61.6281232,74.0144657 61.7208067,74.9910696 C61.878875,76.6571486 62.4424611,78.2102964 61.6514592,79.7911054 C60.9903463,81.1122183 59.7297626,82.0405864 58.5953254,82.8018437 C58.4513468,82.8985439 58.2551924,82.9931867 58.121781,82.8809413 C58.0114854,82.788356 58.0213922,82.6153014 58.0191907,82.4680792 C58.0095041,81.8682176 57.6319454,81.3440246 57.2204835,80.9229327 C56.8090216,80.5016122 56.338119,80.1248699 56.0486206,79.6057061 C55.5229005,78.6636217 55.7062861,77.4853874 55.9053025,76.4164267 L55.1517377,77.3160111 C53.9769419,78.7127537 52.7615875,80.0614519 51.1066749,80.8600661 C49.2893298,81.7369979 47.2060425,81.9708616 45.2541853,81.7056789 L44.7510948,81.635122 C44.0778137,81.5424727 43.3977414,81.4746956 42.749089,81.6617866 C42.206833,81.8184578 41.7146736,82.1550332 41.3595066,82.6077718 L41.2329102,82.7828694 C41.1518947,82.9042591 41.0228863,83.0507954 40.8967399,82.9826709 C40.8190267,82.9403788 40.7974519,82.8368204 40.7864444,82.7462925 C40.4570987,80.0315987 42.4019111,76.0497431 44.3883321,74.2522157 C44.6139867,74.0480708 44.8482271,73.8537558 45.0906132,73.6710998 C48.1135042,71.3932717 51.8085157,71.6362797 55.2719285,70.7595765 L55.6977165,70.6459501 C58.4054894,69.8851702 61.2740987,68.3267079 61.4326293,65.0638632 C61.5297158,63.0651627 60.2030869,61.236545 58.2758866,60.9249553 C55.427396,60.4640701 53.4520949,63.2113347 52.0562881,65.5275891 L51.4217107,66.6048948 C50.7440865,67.7652978 50.0235328,68.9076409 49.1636237,69.9331665 C46.4055741,73.2214322 41.3236124,74.956093 37.8130873,71.8205359 C35.7452106,69.9734011 35.0004403,66.9713499 35,64.2367674 C34.9993395,58.4486974 38.4083751,53.3437015 43.3014474,50.7460539 C43.798548,50.4820142 44.3097382,50.2479219 44.8321561,50.0430911 Z M57.5347238,62.8048856 C58.3837171,62.6011456 59.2329857,63.1412541 59.4316804,64.0118052 C59.6306503,64.8820741 59.1036415,65.7531896 58.2549233,65.9569296 C57.40593,66.1609518 56.5566614,65.6205611 56.3576915,64.7502922 C56.1589968,63.879741 56.6860057,63.0089077 57.5347238,62.8048856 Z" id="形状备份" fill="#FFFFFF"></path>
                </g>
            </g>
        </g>
    </g>
</svg>