<?xml version="1.0" encoding="UTF-8"?>
<svg width="101px" height="101px" viewBox="0 0 101 101" version="1.1" xmlns="http://www.w3.org/2000/svg" xmlns:xlink="http://www.w3.org/1999/xlink">
    <title>编组 39</title>
    <g id="页面-1" stroke="none" stroke-width="1" fill="none" fill-rule="evenodd">
        <g id="桌面" transform="translate(-176.000000, -549.000000)">
            <g id="编组-16" transform="translate(155.000000, 110.000000)">
                <g id="编组-39" transform="translate(13.504311, 431.740115)">
                    <rect id="矩形备份-44" fill="#FFFFFF" x="8" y="8" width="100" height="100" rx="24"></rect>
                    <path d="M113.991378,52.2555736 C113.991378,74.8992484 95.6350528,93.2555736 72.991378,93.2555736 C50.3477033,93.2555736 31.991378,74.8992484 31.991378,52.2555736 L31.991378,52.2555736 Z" id="形状结合" fill="#432AB2" transform="translate(72.991378, 72.755574) rotate(-45.000000) translate(-72.991378, -72.755574) "></path>
                    <path d="M108.334524,54.5987194 C108.334524,68.4058381 89.9781985,79.5987194 67.3345238,79.5987194 C44.690849,79.5987194 26.3345238,68.4058381 26.3345238,54.5987194 L26.3345238,54.5987194 Z" id="形状结合" fill="#00CFFF" transform="translate(67.334524, 67.098719) rotate(-45.000000) translate(-67.334524, -67.098719) "></path>
                    <path d="M85,23.2641956 C85,45.9078704 66.6436747,64.2641956 44,64.2641956 C21.3563253,64.2641956 3,45.9078704 3,23.2641956 L3,23.2641956 Z" id="形状结合" fill="#3C4BE8" transform="translate(44.000000, 43.764196) rotate(-225.000000) translate(-44.000000, -43.764196) "></path>
                    <path d="M90.6568542,36.9210499 C90.6568542,50.7281686 72.300529,61.9210499 49.6568542,61.9210499 C27.0131795,61.9210499 8.65685425,50.7281686 8.65685425,36.9210499 L8.65685425,36.9210499 Z" id="形状结合" fill="#4CA5FF" transform="translate(49.656854, 49.421050) rotate(-225.000000) translate(-49.656854, -49.421050) "></path>
                </g>
            </g>
        </g>
    </g>
</svg>