<?xml version="1.0" encoding="UTF-8"?>
<svg width="100px" height="100px" viewBox="0 0 100 100" version="1.1" xmlns="http://www.w3.org/2000/svg" xmlns:xlink="http://www.w3.org/1999/xlink">
    <title>编组 25备份 3</title>
    <g id="页面-1" stroke="none" stroke-width="1" fill="none" fill-rule="evenodd">
        <g id="桌面" transform="translate(-1353.000000, -328.000000)">
            <g id="编组-16" transform="translate(155.000000, 110.000000)">
                <g id="编组-25备份-3" transform="translate(1198.000000, 218.000000)">
                    <rect id="矩形" fill="#FFFFFF" x="0" y="0" width="100" height="100" rx="24"></rect>
                    <path d="M27.2016905,22 L32.3807211,22 C34.3980836,22 36.2869738,22.9901097 37.4346979,24.6491699 L38.3727252,26.005109 C38.9330034,26.8150034 39.8550927,27.2983398 40.8398975,27.2983398 L85,27.2983398 C87.7614237,27.2983398 90,29.5369161 90,32.2983398 L90,72.9233398 C90,75.6847636 87.7614237,77.9233398 85,77.9233398 L15,77.9233398 C12.2385763,77.9233398 10,75.6847636 10,72.9233398 L10,32.2983398 C10,29.5369161 12.2385763,27.2983398 15,27.2983398 L18.7425141,27.2983398 C19.7273189,27.2983398 20.6494082,26.8150034 21.2096863,26.005109 L22.1477137,24.6491699 C23.2954378,22.9901097 25.184328,22 27.2016905,22 Z" id="路径备份" fill="#4A585E"></path>
                    <circle id="椭圆形备份-10" fill="#4A585E" cx="50" cy="52" r="30"></circle>
                    <circle id="椭圆形备份-11" fill="#FFFFFF" cx="50" cy="52" r="26"></circle>
                    <circle id="椭圆形备份-11" fill="#FFD12A" cx="50" cy="52" r="20"></circle>
                    <circle id="椭圆形备份-12" fill="#FF9F29" cx="83" cy="35" r="3"></circle>
                </g>
            </g>
        </g>
    </g>
</svg>