<?xml version="1.0" encoding="UTF-8"?>
<svg width="100px" height="100px" viewBox="0 0 100 100" version="1.1" xmlns="http://www.w3.org/2000/svg" xmlns:xlink="http://www.w3.org/1999/xlink">
    <title>编组 21</title>
    <defs>
        <path d="M34.6329442,13.3358353 L65.429163,62.9519657 C66.6745269,64.9583854 66.0575694,67.5944768 64.0511497,68.8398407 C63.374099,69.2600791 62.5930864,69.4827586 61.7962189,69.4827586 L0.203781148,69.4827586 C-2.15771227,69.4827586 -4.07208092,67.56839 -4.07208092,65.2068966 C-4.07208092,64.410029 -3.84940136,63.6290164 -3.42916301,62.9519657 L27.3670558,13.3358353 C28.6124198,11.3294157 31.2485112,10.7124581 33.2549309,11.957822 C33.8142165,12.3049648 34.2858014,12.7765497 34.6329442,13.3358353 Z" id="path-1"></path>
    </defs>
    <g id="页面-1" stroke="none" stroke-width="1" fill="none" fill-rule="evenodd">
        <g id="桌面" transform="translate(-765.000000, -328.000000)">
            <g id="编组-16" transform="translate(155.000000, 110.000000)">
                <g id="编组-28" transform="translate(610.000000, 218.000000)">
                    <g id="编组-25备份" fill="#FFFFFF">
                        <rect id="矩形备份-35" x="0" y="0" width="100" height="100" rx="24"></rect>
                    </g>
                    <g id="编组-26" transform="translate(23.000000, 12.000000)">
                        <mask id="mask-2" fill="white">
                            <use xlink:href="#path-1"></use>
                        </mask>
                        <use id="三角形" fill="#6236FF" transform="translate(31.000000, 38.482759) rotate(-270.000000) translate(-31.000000, -38.482759) " xlink:href="#path-1"></use>
                        <polygon id="三角形" fill="#432AB2" mask="url(#mask-2)" transform="translate(16.034483, 19.241379) rotate(-270.000000) translate(-16.034483, -19.241379) " points="16.0344828 3.20689655 35.2758621 35.2758621 -3.20689655 35.2758621"></polygon>
                        <polygon id="三角形备份-3" fill="#00E9FF" mask="url(#mask-2)" transform="translate(47.568966, 39.551724) rotate(-270.000000) translate(-47.568966, -39.551724) " points="47.5689655 22.9827586 67.8793103 56.1206897 27.2586207 56.1206897"></polygon>
                        <polygon id="三角形备份-2" fill="#432AB2" mask="url(#mask-2)" transform="translate(15.500000, 57.724138) rotate(-270.000000) translate(-15.500000, -57.724138) " points="15.5 42.2241379 34.7413793 73.2241379 -3.74137931 73.2241379"></polygon>
                        <path d="M31,19.2413793 L4.393918,35.7000688 C2.88769892,36.6318254 2.42200505,38.6081951 3.35376164,40.1144142 C3.61348859,40.5342725 3.96664717,40.8884949 4.38572228,41.1494836 L31,57.7241379 L31,57.7241379 L31,19.2413793 Z" id="路径-6" fill="#FF00BF" mask="url(#mask-2)"></path>
                    </g>
                </g>
            </g>
        </g>
    </g>
</svg>