<?xml version="1.0" encoding="UTF-8"?>
<svg width="100px" height="100px" viewBox="0 0 100 100" version="1.1" xmlns="http://www.w3.org/2000/svg" xmlns:xlink="http://www.w3.org/1999/xlink">
    <title>编组 15备份</title>
    <g id="页面-1" stroke="none" stroke-width="1" fill="none" fill-rule="evenodd">
        <g id="桌面" transform="translate(-470.000000, -110.000000)">
            <g id="编组-16" transform="translate(155.000000, 110.000000)">
                <g id="投屏" transform="translate(315.000000, 0.000000)">
                    <rect id="矩形备份-6" fill="#FFFFFF" x="0" y="0" width="100" height="100" rx="24"></rect>
                    <g id="编组-16" transform="translate(10.000000, 12.000000)">
                        <rect id="矩形" fill="#394BF1" x="0" y="0" width="66" height="54" rx="10"></rect>
                        <g id="编组-15" transform="translate(14.000000, 22.000000)">
                            <rect id="矩形备份-8" fill="#14DF6C" x="0" y="0" width="66" height="54" rx="10"></rect>
                            <path d="M26.1775772,46.3805175 L1.73693044,28.285933 C1.02672925,27.760137 0.877239342,26.7581632 1.40303539,26.047962 C1.49720737,25.9207624 1.60973083,25.808239 1.73693044,25.714067 L26.1775772,7.6194825 C26.7863211,7.16880018 27.6451558,7.29693438 28.0958381,7.90567826 C28.2706711,8.14182806 28.3650384,8.42788549 28.3650384,8.7217108 L28.3650384,20.0668202 C28.3649458,20.290556 28.5268509,20.4814307 28.7475895,20.5179302 C38.9158632,22.1992694 44,29.2218274 44,41.5856042 C44,41.5856042 44,41.5856042 44,41.5856042 C44,41.7615895 43.8573357,41.9042538 43.6813504,41.9042538 C43.550822,41.9042538 43.4334928,41.8246479 43.3852569,41.7033592 C41.1910188,36.1861184 36.8039329,33.3297869 30.223949,33.1343847 L28.8221812,33.1343847 C28.5697082,33.1343847 28.3650384,33.3390545 28.3650384,33.5915276 L28.3650384,45.2782892 C28.3650384,46.0357083 27.7510289,46.6497178 26.9936098,46.6497178 C26.6997845,46.6497178 26.413727,46.5553505 26.1775772,46.3805175 Z" id="路径" fill="#FFFFFF" fill-rule="nonzero" transform="translate(22.000000, 27.000000) rotate(-180.000000) translate(-22.000000, -27.000000) "></path>
                        </g>
                    </g>
                </g>
            </g>
        </g>
    </g>
</svg>