<?xml version="1.0" encoding="UTF-8"?>
<svg width="100px" height="100px" viewBox="0 0 100 100" version="1.1" xmlns="http://www.w3.org/2000/svg" xmlns:xlink="http://www.w3.org/1999/xlink">
    <title>编组 16</title>
    <defs>
        <path d="M22,0 L78,0 C90.1502645,0 100,9.8497355 100,22 L100,78 C100,90.1502645 90.1502645,100 78,100 L22,100 C9.8497355,100 0,90.1502645 0,78 L0,22 C0,9.8497355 9.8497355,0 22,0 Z" id="path-1"></path>
    </defs>
    <g id="页面-1" stroke="none" stroke-width="1" fill="none" fill-rule="evenodd">
        <g id="桌面" transform="translate(-471.000000, -328.000000)">
            <g id="编组-16" transform="translate(155.000000, 110.000000)">
                <g transform="translate(316.000000, 218.000000)">
                    <g id="编组-14备份-6">
                        <mask id="mask-2" fill="white">
                            <use xlink:href="#path-1"></use>
                        </mask>
                        <use id="矩形备份-6" fill="#FFFFFF" xlink:href="#path-1"></use>
                        <circle id="椭圆形" fill="#4E5C62" mask="url(#mask-2)" cx="50" cy="50" r="44"></circle>
                    </g>
                    <path d="M50.1502798,10 C50.4370058,10 50.7188829,10.0739467 50.9686633,10.2147359 C51.2858165,10.3934999 51.4698687,10.595157 51.5208198,10.8197073 L52.2931795,14.2220132 C52.4477652,14.9029755 53.0104629,15.4153767 53.7028833,15.5057113 L55.3562831,15.7214172 C56.0473489,15.811575 56.7215453,15.4622322 57.0464096,14.8456582 L58.6716068,11.7611262 C58.900767,11.3261929 59.4004621,11.107799 59.8753219,11.2350373 L60.8302017,11.4908966 C61.3050615,11.6181349 61.6286132,12.0571171 61.6096051,12.5483605 L61.4751077,16.0281051 C61.4481729,16.7249676 61.8579521,17.3649198 62.5021501,17.6320372 L64.0457221,18.2720811 C64.6903532,18.5393781 65.4332583,18.3767649 65.9072762,17.8646088 L68.2730778,15.3084613 C68.6069986,14.947659 69.1461915,14.8660373 69.5719391,15.1118428 L70.4280609,15.6061249 C70.8538085,15.8519304 71.0527185,16.359696 70.907215,16.8292811 L69.8748242,20.1622936 C69.6685517,20.8282321 69.8985539,21.552193 70.4513483,21.9769762 L71.7721117,22.9918888 C72.3255806,23.4171901 73.0854426,23.452553 73.6760194,23.0804937 L76.6292687,21.2199673 C77.0451939,20.9578841 77.5871395,21.018597 77.934761,21.3662185 L78.6337815,22.065239 C78.981403,22.4128605 79.0421159,22.9548061 78.7800327,23.3707313 L76.9195063,26.3239806 C76.547447,26.9145574 76.5828099,27.6744194 77.0081112,28.2278883 L78.0230238,29.5486517 C78.447807,30.1014461 79.1717679,30.3314483 79.8377064,30.1251758 L83.1707189,29.092785 C83.640304,28.9472815 84.1480696,29.1461915 84.3938751,29.5719391 L84.8881572,30.4280609 C85.1339627,30.8538085 85.052341,31.3930014 84.6915387,31.7269222 L82.1353912,34.0927238 C81.6232351,34.5667417 81.4606219,35.3096468 81.7279189,35.9542779 L82.3679628,37.4978499 C82.6350802,38.1420479 83.2750325,38.5518271 83.9718949,38.5248923 L87.4516395,38.3903949 C87.9428829,38.3713868 88.3818651,38.6949385 88.5091034,39.1697983 L88.7649627,40.1246781 C88.892201,40.5995379 88.6738071,41.099233 88.2388738,41.3283932 L85.1543418,42.9535904 C84.5377678,43.2784547 84.188425,43.9526511 84.2785828,44.6437169 L84.4942888,46.2971167 C84.5846233,46.9895371 85.0970245,47.5522348 85.7779869,47.7068205 L89.1802927,48.4791802 C89.6597171,48.5879629 90,49.0141068 90,49.5057178 L90,50.4942822 C90,50.9858932 89.6597171,51.4120371 89.1802927,51.5208198 L85.7779869,52.2931795 C85.0970245,52.4477652 84.5846233,53.0104629 84.4942888,53.7028833 L84.2785828,55.3562831 C84.188425,56.0473489 84.5377678,56.7215453 85.1543418,57.0464096 L88.2388738,58.6716068 C88.6738071,58.900767 88.892201,59.4004621 88.7649627,59.8753219 L88.5091034,60.8302017 C88.3818651,61.3050615 87.9428829,61.6286132 87.4516395,61.6096051 L83.9718949,61.4751077 C83.2750325,61.4481729 82.6350802,61.8579521 82.3679628,62.5021501 L81.7279189,64.0457222 C81.4606219,64.6903532 81.6232351,65.4332583 82.1353912,65.9072762 L84.6915387,68.2730778 C85.052341,68.6069986 85.1339627,69.1461915 84.8881572,69.5719391 L84.3938751,70.4280609 C84.1480696,70.8538085 83.640304,71.0527185 83.1707189,70.907215 L79.8377064,69.8748242 C79.1717679,69.6685517 78.447807,69.8985539 78.0230238,70.4513483 L77.0081112,71.7721117 C76.5828099,72.3255806 76.547447,73.0854426 76.9195063,73.6760194 L78.7800327,76.6292687 C79.0421159,77.0451939 78.981403,77.5871395 78.6337815,77.934761 L77.934761,78.6337815 C77.5871395,78.981403 77.0451939,79.0421159 76.6292687,78.7800327 L73.6760194,76.9195063 C73.0854426,76.5474471 72.3255806,76.5828099 71.7721117,77.0081112 L70.4513483,78.0230238 C69.8985539,78.447807 69.6685517,79.171768 69.8748242,79.8377064 L70.907215,83.1707189 C71.0527185,83.640304 70.8538085,84.1480696 70.4280609,84.3938751 L69.5719391,84.8881572 C69.1461915,85.1339627 68.6069986,85.052341 68.2730778,84.6915388 L65.9072762,82.1353912 C65.4332583,81.6232351 64.6903532,81.4606219 64.0457221,81.7279189 L62.5021501,82.3679628 C61.8579521,82.6350802 61.4481729,83.2750325 61.4751077,83.9718949 L61.6096051,87.4516395 C61.6286132,87.9428829 61.3050615,88.3818651 60.8302017,88.5091034 L59.8753219,88.7649627 C59.4004621,88.892201 58.900767,88.6738071 58.6716068,88.2388738 L57.0464096,85.1543418 C56.7215453,84.5377678 56.0473489,84.188425 55.3562831,84.2785828 L53.7028833,84.4942888 C53.0104629,84.5846234 52.4477652,85.0970245 52.2931795,85.7779869 L51.5208198,89.1802927 C51.4120371,89.6597171 50.9858932,90 50.4942822,90 L49.5057178,90 C49.0141068,90 48.5879629,89.6597171 48.4791802,89.1802927 L47.7068205,85.7779869 C47.5522348,85.0970245 46.9895371,84.5846234 46.2971167,84.4942888 L44.6437169,84.2785828 C43.9526511,84.188425 43.2784547,84.5377678 42.9535904,85.1543418 L41.3283932,88.2388738 C41.099233,88.6738071 40.5995379,88.892201 40.1246781,88.7649627 L39.1697983,88.5091034 C38.6949385,88.3818651 38.3713868,87.9428829 38.3903949,87.4516395 L38.5248923,83.9718949 C38.5518271,83.2750325 38.1420479,82.6350802 37.4978499,82.3679628 L35.9542779,81.7279189 C35.3096468,81.4606219 34.5667417,81.6232351 34.0927238,82.1353912 L31.7269222,84.6915388 C31.3930014,85.052341 30.8538085,85.1339627 30.4280609,84.8881572 L29.5719391,84.3938751 C29.1461915,84.1480696 28.9472815,83.640304 29.092785,83.1707189 L30.1251758,79.8377064 C30.3314483,79.171768 30.1014461,78.447807 29.5486517,78.0230238 L28.2278883,77.0081112 C27.6744194,76.5828099 26.9145574,76.5474471 26.3239806,76.9195063 L23.3707313,78.7800327 C22.9548061,79.0421159 22.4128605,78.981403 22.065239,78.6337815 L21.3662185,77.934761 C21.018597,77.5871395 20.9578841,77.0451939 21.2199673,76.6292687 L23.0804937,73.6760194 C23.452553,73.0854426 23.4171901,72.3255806 22.9918888,71.7721117 L21.9769762,70.4513483 C21.552193,69.8985539 20.8282321,69.6685517 20.1622936,69.8748242 L16.8292811,70.907215 C16.359696,71.0527185 15.8519304,70.8538085 15.6061249,70.4280609 L15.1118428,69.5719391 C14.8660373,69.1461915 14.947659,68.6069986 15.3084613,68.2730778 L17.8646088,65.9072762 C18.3767649,65.4332583 18.5393781,64.6903532 18.2720811,64.0457222 L17.6320372,62.5021501 C17.3649198,61.8579521 16.7249675,61.4481729 16.0281051,61.4751077 L12.5483605,61.6096051 C12.0571171,61.6286132 11.6181349,61.3050615 11.4908966,60.8302017 L11.2350373,59.8753219 C11.107799,59.4004621 11.3261929,58.900767 11.7611262,58.6716068 L14.8456582,57.0464096 C15.4622322,56.7215453 15.811575,56.0473489 15.7214172,55.3562831 L15.5057112,53.7028833 C15.4153767,53.0104629 14.9029755,52.4477652 14.2220131,52.2931795 L10.8197073,51.5208198 C10.3402829,51.4120371 10,50.9858932 10,50.4942822 L10,49.5057178 C10,49.0141068 10.3402829,48.5879629 10.8197073,48.4791802 L14.2220131,47.7068205 C14.9029755,47.5522348 15.4153767,46.9895371 15.5057112,46.2971167 L15.7214172,44.6437169 C15.811575,43.9526511 15.4622322,43.2784547 14.8456582,42.9535904 L11.7611262,41.3283932 C11.3261929,41.099233 11.107799,40.5995379 11.2350373,40.1246781 L11.4908966,39.1697983 C11.6181349,38.6949385 12.0571171,38.3713868 12.5483605,38.3903949 L16.0281051,38.5248923 C16.7249675,38.5518271 17.3649198,38.1420479 17.6320372,37.4978499 L18.2720811,35.9542779 C18.5393781,35.3096468 18.3767649,34.5667417 17.8646088,34.0927238 L15.3084613,31.7269222 C14.947659,31.3930014 14.8660373,30.8538085 15.1118428,30.4280609 L15.6061249,29.5719391 C15.8519304,29.1461915 16.359696,28.9472815 16.8292811,29.092785 L20.1622936,30.1251758 C20.8282321,30.3314483 21.552193,30.1014461 21.9769762,29.5486517 L22.9918888,28.2278883 C23.4171901,27.6744194 23.452553,26.9145574 23.0804937,26.3239806 L21.2199673,23.3707313 C20.9578841,22.9548061 21.018597,22.4128605 21.3662185,22.065239 L22.065239,21.3662185 C22.4128605,21.018597 22.9548061,20.9578841 23.3707313,21.2199673 L26.3239806,23.0804937 C26.9145574,23.452553 27.6744194,23.4171901 28.2278883,22.9918888 L29.5486517,21.9769762 C30.1014461,21.552193 30.3314483,20.8282321 30.1251758,20.1622936 L29.092785,16.8292811 C28.9472815,16.359696 29.1461915,15.8519304 29.5719391,15.6061249 L30.4280609,15.1118428 C30.8538085,14.8660373 31.3930014,14.947659 31.7269222,15.3084613 L34.0927238,17.8646088 C34.5667417,18.3767649 35.3096468,18.5393781 35.9542779,18.2720811 L37.4978499,17.6320372 C38.1420479,17.3649198 38.5518271,16.7249676 38.5248923,16.0281051 L38.3903949,12.5483605 C38.3713868,12.0571171 38.6949385,11.6181349 39.1697983,11.4908966 L40.1246781,11.2350373 C40.5995379,11.107799 41.099233,11.3261929 41.3283932,11.7611262 L42.9535904,14.8456582 C43.2784547,15.4622322 43.9526511,15.811575 44.6437169,15.7214172 L46.2971167,15.5057113 C46.9895371,15.4153767 47.5522348,14.9029755 47.7068205,14.2220132 L48.4791802,10.8197073 C48.5879629,10.3402829 49.0141068,10 49.5057178,10 L50.1502798,10 Z M54.3319662,55.0675606 C53.1667979,56.0645384 51.6537163,56.6666667 50,56.6666667 C48.3468067,56.6666667 46.8341591,56.0649192 45.6691394,55.0685064 C39.2488825,58.7747509 34.4336898,61.5544343 31.2235613,63.4075566 C28.2278883,65.1368794 29.7326103,67.3838315 30.6668248,68.366882 C35.5253002,73.4793343 42.3904294,76.6666667 50,76.6666667 C57.6648565,76.6666667 64.5744151,73.4328522 69.438752,68.255147 C70.3322609,67.3040768 71.3516932,64.8941331 68.874017,63.4636128 C65.6424502,61.5978235 60.7950999,58.7991394 54.3319662,55.0675606 Z M52.2227675,26.1542958 L52.2227675,43.7129488 L52.2227675,43.7129488 C54.8119026,44.6283559 56.6666667,47.0975763 56.6666667,50 C56.6666667,50.4160731 56.6285508,50.8232438 56.5556202,51.2182107 C63.1316526,55.0148603 68.063677,57.8623475 71.3516932,59.7606723 C73.2041844,60.8302017 75.0119723,59.3356033 75.3579356,58.274696 C76.2074111,55.6697526 76.6666667,52.8885087 76.6666667,50 C76.6666667,37.4980528 68.06342,27.0055015 56.4543092,24.1197287 C52.5939844,23.1601358 52.2227675,25.7850889 52.2227675,26.1542958 Z M44.2078777,23.9641249 C32.2652383,26.6091448 23.3333333,37.2614933 23.3333333,50 C23.3333333,52.85379 23.7816151,55.6028781 24.6116026,58.1806884 C24.9638389,59.274679 26.3239806,61.102614 29.1130611,59.4923481 C32.2977986,57.6536509 37.0749048,54.8956051 43.4443798,51.2182107 C43.3714492,50.8232438 43.3333333,50.4160731 43.3333333,50 C43.3333333,47.0971579 45.1886322,44.627644 47.7783475,43.712553 L47.7783475,26.101077 L47.7783475,26.101077 C47.7783475,25.7453419 47.2281239,23.2952099 44.2078777,23.9641249 Z M50,48 C48.8954305,48 48,48.8954305 48,50 C48,51.1045695 48.8954305,52 50,52 C51.1045695,52 52,51.1045695 52,50 C52,48.8954305 51.1045695,48 50,48 Z" id="形状结合" fill="#FFFFFF"></path>
                    <circle id="椭圆形" stroke="#FDFDFF" stroke-width="6" opacity="0.235746838" cx="50" cy="50" r="15"></circle>
                </g>
            </g>
        </g>
    </g>
</svg>